<svg width="32" height="32" viewBox="0 0 32 32" fill="none" xmlns="http://www.w3.org/2000/svg">
<path d="M10.1328 21.8676V14.5342M15.9994 21.8676V10.1342M21.8661 21.8676V18.9342M24.7994 4.26758H7.19945C6.42148 4.26758 5.67537 4.57662 5.12527 5.12673C4.57516 5.67684 4.26611 6.42294 4.26611 7.20091V24.8009C4.26611 25.5789 4.57516 26.325 5.12527 26.8751C5.67537 27.4252 6.42148 27.7342 7.19945 27.7342H24.7994C25.5774 27.7342 26.3235 27.4252 26.8736 26.8751C27.4237 26.325 27.7328 25.5789 27.7328 24.8009V7.20091C27.7328 6.42294 27.4237 5.67684 26.8736 5.12673C26.3235 4.57662 25.5774 4.26758 24.7994 4.26758Z" stroke="#50CEC3" stroke-width="2.68125" stroke-linecap="round" stroke-linejoin="round"/>
</svg>
