<svg width="18" height="18" viewBox="0 0 18 18" fill="none" xmlns="http://www.w3.org/2000/svg">
<path d="M5.25116 3.75V1.5C5.25116 1.30109 5.33018 1.11032 5.47083 0.96967C5.61148 0.829018 5.80225 0.75 6.00116 0.75H12.0012C12.2001 0.75 12.3908 0.829018 12.5315 0.96967C12.6721 1.11032 12.7512 1.30109 12.7512 1.5V3.75H15.7512C15.9501 3.75 16.1408 3.82902 16.2815 3.96967C16.4221 4.11032 16.5012 4.30109 16.5012 4.5V15C16.5012 15.1989 16.4221 15.3897 16.2815 15.5303C16.1408 15.671 15.9501 15.75 15.7512 15.75H2.25116C2.05225 15.75 1.86148 15.671 1.72083 15.5303C1.58018 15.3897 1.50116 15.1989 1.50116 15V4.5C1.50116 4.30109 1.58018 4.11032 1.72083 3.96967C1.86148 3.82902 2.05225 3.75 2.25116 3.75H5.25116ZM15.0012 9.75H3.00116V14.25H15.0012V9.75ZM15.0012 5.25H3.00116V8.25H5.25116V6.75H6.75116V8.25H11.2512V6.75H12.7512V8.25H15.0012V5.25ZM6.75116 2.25V3.75H11.2512V2.25H6.75116Z" fill="#50CEC3"/>
</svg>
