<svg width="18" height="18" viewBox="0 0 18 18" fill="none" xmlns="http://www.w3.org/2000/svg">
<path d="M13.9331 16.206C12.3612 15.8311 10.8701 15.1749 9.53184 14.2691L11.3775 11.6223C11.6809 11.2081 12.1301 10.9244 12.6345 10.8284C13.1389 10.7324 13.661 10.8313 14.0953 11.1051C14.43 11.3181 14.7748 11.5107 15.1094 11.7034C15.3613 11.8266 15.585 12.0006 15.7662 12.2146C15.9475 12.4286 16.0824 12.6778 16.1624 12.9465C16.2425 13.2153 16.2659 13.4977 16.2313 13.7759C16.1967 14.0542 16.1047 14.3223 15.9613 14.5632L15.3325 15.5266C15.2202 15.7894 15.0168 16.0029 14.7597 16.1277C14.5026 16.2525 14.209 16.2803 13.9331 16.206ZM2.44326 2.68804L3.45736 2.0593C3.69253 1.90668 3.95679 1.80447 4.23345 1.75913C4.51011 1.71378 4.79317 1.72629 5.06475 1.79585C5.33633 1.86541 5.59055 1.99053 5.81134 2.16329C6.03214 2.33605 6.21472 2.55271 6.34756 2.79959C6.54024 3.16467 6.73292 3.50947 6.94588 3.8137C7.21969 4.24804 7.31858 4.77007 7.2226 5.27447C7.12661 5.77886 6.84289 6.22808 6.42869 6.5315L3.73117 8.40759C2.81795 7.08078 2.1515 5.60016 1.76381 4.0368C1.70281 3.76806 1.73726 3.48647 1.86124 3.24036C1.98522 2.99425 2.191 2.79897 2.44326 2.68804Z" stroke="white" stroke-width="1.5" stroke-linecap="round" stroke-linejoin="round"/>
<path d="M3.73047 8.40747C4.47568 9.57637 5.35365 10.6551 6.34686 11.6222C7.31392 12.6154 8.39267 13.4934 9.56157 14.2386" stroke="white" stroke-width="1.5" stroke-linecap="round" stroke-linejoin="round"/>
</svg>
