<svg width="18" height="18" viewBox="0 0 18 18" fill="none" xmlns="http://www.w3.org/2000/svg">
<g clip-path="url(#clip0_8566_13227)">
<path d="M16.4406 11.1341H8.65856C8.56309 11.1341 8.47152 11.0962 8.40401 11.0287C8.33649 10.9612 8.29856 10.8696 8.29856 10.7741C8.29856 10.6786 8.33649 10.5871 8.40401 10.5196C8.47152 10.452 8.56309 10.4141 8.65856 10.4141H16.0806V2.34012H4.99856V8.30612C4.99856 8.35339 4.98925 8.40021 4.97116 8.44388C4.95307 8.48756 4.92655 8.52725 4.89312 8.56068C4.85969 8.5941 4.82001 8.62062 4.77633 8.63871C4.73265 8.65681 4.68584 8.66612 4.63856 8.66612C4.59129 8.66612 4.54448 8.65681 4.5008 8.63871C4.45712 8.62062 4.41744 8.5941 4.38401 8.56068C4.35058 8.52725 4.32406 8.48756 4.30597 8.44388C4.28788 8.40021 4.27856 8.35339 4.27856 8.30612V1.98012C4.27856 1.88464 4.31649 1.79307 4.38401 1.72556C4.45152 1.65805 4.54309 1.62012 4.63856 1.62012H16.4386C16.534 1.62012 16.6256 1.65805 16.6931 1.72556C16.7606 1.79307 16.7986 1.88464 16.7986 1.98012V10.7801C16.797 10.8742 16.7587 10.9639 16.6917 11.0301C16.6248 11.0963 16.5347 11.1336 16.4406 11.1341Z" fill="#50CEC3"/>
<path d="M5.26767 9.83991C5.20487 9.8399 5.14317 9.82347 5.08868 9.79224C5.0342 9.76101 4.98883 9.71607 4.95709 9.66188C4.92535 9.6077 4.90833 9.54615 4.90773 9.48335C4.90713 9.42056 4.92297 9.35869 4.95367 9.30391L6.68367 6.22791C6.71537 6.17219 6.76137 6.12594 6.81692 6.09394C6.87247 6.06194 6.93556 6.04536 6.99967 6.04591H8.99967C9.09515 6.04591 9.18672 6.08384 9.25423 6.15135C9.32174 6.21887 9.35967 6.31043 9.35967 6.40591C9.35967 6.50139 9.32174 6.59296 9.25423 6.66047C9.18672 6.72798 9.09515 6.76591 8.99967 6.76591H7.19967L5.58167 9.65591C5.5504 9.71171 5.50482 9.75817 5.44963 9.79051C5.39445 9.82285 5.33164 9.8399 5.26767 9.83991Z" fill="#50CEC3"/>
<path d="M16.2666 10.9399C16.1966 10.9399 16.128 10.9195 16.0694 10.8811C16.0108 10.8427 15.9646 10.7881 15.9366 10.7239L14.2006 6.7659H12.0846C11.9891 6.7659 11.8976 6.72797 11.8301 6.66046C11.7625 6.59294 11.7246 6.50138 11.7246 6.4059C11.7246 6.31042 11.7625 6.21885 11.8301 6.15134C11.8976 6.08383 11.9891 6.0459 12.0846 6.0459H14.4286C14.4987 6.04589 14.5672 6.06632 14.6258 6.10469C14.6844 6.14305 14.7306 6.19769 14.7586 6.2619L16.6006 10.4359C16.6245 10.4907 16.6344 10.5506 16.6294 10.6101C16.6244 10.6697 16.6046 10.7271 16.5718 10.7771C16.5391 10.8271 16.4944 10.8682 16.4418 10.8966C16.3892 10.925 16.3304 10.9399 16.2706 10.9399H16.2666Z" fill="#50CEC3"/>
<path d="M14.4277 6.76591C14.3767 6.76598 14.3262 6.75507 14.2797 6.73391C14.1931 6.69426 14.1257 6.6219 14.0924 6.53268C14.059 6.44346 14.0624 6.34466 14.1017 6.25791L16.1157 1.82991C16.1353 1.78684 16.1631 1.74804 16.1977 1.71573C16.2323 1.68342 16.2729 1.65824 16.3171 1.64162C16.3614 1.625 16.4086 1.61726 16.4559 1.61886C16.5031 1.62045 16.5496 1.63134 16.5927 1.65091C16.6358 1.67048 16.6746 1.69834 16.7069 1.7329C16.7392 1.76746 16.7644 1.80804 16.781 1.85234C16.7976 1.89663 16.8054 1.94376 16.8038 1.99105C16.8022 2.03833 16.7913 2.08484 16.7717 2.12791L14.7557 6.55391C14.7272 6.61706 14.6811 6.67065 14.623 6.70825C14.5648 6.74586 14.497 6.76588 14.4277 6.76591Z" fill="#50CEC3"/>
<path d="M7.00176 6.76577C6.93548 6.76494 6.87072 6.74583 6.81461 6.71054C6.7585 6.67525 6.71322 6.62515 6.68376 6.56577L4.32776 2.14777C4.28294 2.06343 4.27346 1.96474 4.3014 1.87341C4.32935 1.78208 4.39242 1.70559 4.47676 1.66077C4.5611 1.61595 4.65979 1.60647 4.75112 1.63441C4.84245 1.66235 4.91894 1.72543 4.96376 1.80977L7.31576 6.23577C7.34502 6.29037 7.35969 6.3516 7.35836 6.41352C7.35702 6.47545 7.33974 6.53599 7.30816 6.58928C7.27659 6.64258 7.2318 6.68682 7.17812 6.71774C7.12445 6.74865 7.0637 6.7652 7.00176 6.76577Z" fill="#50CEC3"/>
<path d="M9.24136 8.88812L8.64136 8.28812V1.62012H12.4414V8.29212L11.8414 8.89212L11.1614 8.54412L10.5454 8.85212L9.92936 8.54412L9.24136 8.88812ZM9.92736 7.74012L10.5434 8.04812L11.1614 7.74012L11.7054 8.01212L11.7254 7.99212V2.34012H9.36336V8.00012L9.38336 8.02012L9.92736 7.74012Z" fill="#50CEC3"/>
<path d="M10.4634 16.3798C9.18943 16.3798 7.72143 15.6338 6.54143 15.0338C5.84943 14.6818 5.14143 14.3178 4.82143 14.3178C4.72595 14.3178 4.63438 14.2799 4.56687 14.2123C4.49935 14.1448 4.46143 14.0533 4.46143 13.9578C4.46143 13.8623 4.49935 13.7707 4.56687 13.7032C4.63438 13.6357 4.72595 13.5978 4.82143 13.5978C5.30543 13.5978 5.99543 13.9478 6.86743 14.3978C7.97743 14.9618 9.35943 15.6658 10.4674 15.6658C12.6534 15.6658 17.2854 12.8998 17.2854 12.1358C17.2814 11.4838 17.0014 11.1998 16.4014 11.1998C16.2014 11.1998 15.6014 11.6998 15.2154 12.0318C14.3194 12.7818 13.3034 13.6318 12.4154 13.3818C12.3315 13.3575 12.2592 13.3036 12.2121 13.23C12.165 13.1564 12.1463 13.0682 12.1594 12.9818C12.19 12.8674 12.194 12.7476 12.1711 12.6315C12.1482 12.5154 12.0991 12.406 12.0274 12.3118C11.5694 11.7638 10.2274 11.7638 9.64943 11.7658H9.60143C9.20143 11.7658 8.88143 11.5378 8.52143 11.2738C7.88943 10.8098 7.02143 10.1738 4.94943 10.1458C4.85395 10.1458 4.76238 10.1079 4.69487 10.0403C4.62735 9.97283 4.58943 9.88126 4.58943 9.78578C4.58943 9.6903 4.62735 9.59874 4.69487 9.53122C4.76238 9.46371 4.85395 9.42578 4.94943 9.42578C7.25343 9.45778 8.26743 10.2018 8.93743 10.6938C9.21743 10.8938 9.41943 11.0458 9.59143 11.0458H9.63143C10.3594 11.0458 11.8894 11.0458 12.5614 11.8458C12.7621 12.085 12.875 12.3856 12.8814 12.6978C13.4114 12.5898 14.1574 11.9638 14.7274 11.4858C15.3934 10.9278 15.9274 10.4858 16.3754 10.4858C17.3974 10.4858 17.9754 11.0858 17.9754 12.1418C18.0014 13.6978 12.4414 16.3798 10.4634 16.3798Z" fill="#50CEC3"/>
<path d="M4.64405 15.1658H0.36005C0.312265 15.1658 0.264957 15.1563 0.220884 15.1378C0.176811 15.1193 0.136855 15.0923 0.103347 15.0582C0.0698378 15.0242 0.0434467 14.9838 0.0257119 14.9394C0.0079771 14.895 -0.00074641 14.8476 5.00072e-05 14.7998V8.28578C5.00072e-05 8.1903 0.0379785 8.09874 0.105492 8.03122C0.173005 7.96371 0.264572 7.92578 0.36005 7.92578H4.64405C4.73953 7.92578 4.8311 7.96371 4.89861 8.03122C4.96612 8.09874 5.00405 8.1903 5.00405 8.28578V14.7998C5.00485 14.8476 4.99612 14.895 4.97839 14.9394C4.96065 14.9838 4.93426 15.0242 4.90075 15.0582C4.86724 15.0923 4.82729 15.1193 4.78322 15.1378C4.73914 15.1563 4.69183 15.1658 4.64405 15.1658ZM0.72005 14.4458H4.28405V8.64578H0.72005V14.4458Z" fill="#50CEC3"/>
<path d="M12.5129 13.388H7.77089C7.67541 13.388 7.58384 13.35 7.51633 13.2825C7.44882 13.215 7.41089 13.1234 7.41089 13.028C7.41089 12.9325 7.44882 12.8409 7.51633 12.7734C7.58384 12.7059 7.67541 12.668 7.77089 12.668H12.5129C12.6084 12.668 12.6999 12.7059 12.7674 12.7734C12.835 12.8409 12.8729 12.9325 12.8729 13.028C12.8729 13.1234 12.835 13.215 12.7674 13.2825C12.6999 13.35 12.6084 13.388 12.5129 13.388Z" fill="#50CEC3"/>
</g>
<defs>
<clipPath id="clip0_8566_13227">
<rect width="18" height="18" fill="white"/>
</clipPath>
</defs>
</svg>
