<svg width="32" height="32" viewBox="0 0 32 32" fill="none" xmlns="http://www.w3.org/2000/svg">
<g clip-path="url(#clip0_7924_10806)">
<path d="M26.0001 21H24.0001V26H26.0001V21Z" fill="#50CEC3"/>
<path d="M22.0012 16H20.0012V26H22.0012V16Z" fill="#50CEC3"/>
<path d="M11 26C9.6744 25.9984 8.40353 25.4712 7.46619 24.5338C6.52885 23.5965 6.00156 22.3256 6 21H8C8 21.5933 8.17595 22.1734 8.50559 22.6667C8.83524 23.1601 9.30377 23.5446 9.85195 23.7716C10.4001 23.9987 11.0033 24.0581 11.5853 23.9424C12.1672 23.8266 12.7018 23.5409 13.1213 23.1213C13.5409 22.7018 13.8266 22.1672 13.9424 21.5853C14.0581 21.0033 13.9987 20.4001 13.7716 19.852C13.5446 19.3038 13.1601 18.8352 12.6667 18.5056C12.1734 18.1759 11.5933 18 11 18V16C12.3261 16 13.5979 16.5268 14.5355 17.4645C15.4732 18.4021 16 19.6739 16 21C16 22.3261 15.4732 23.5979 14.5355 24.5355C13.5979 25.4732 12.3261 26 11 26Z" fill="#50CEC3"/>
<path d="M28.0011 2H4.0011C3.47083 2.00053 2.96243 2.21141 2.58747 2.58637C2.21251 2.96133 2.00163 3.46973 2.0011 4V28C2.00171 28.5302 2.21262 29.0386 2.58756 29.4135C2.9625 29.7885 3.47085 29.9994 4.0011 30H28.0011C28.5313 29.9993 29.0396 29.7883 29.4145 29.4134C29.7894 29.0385 30.0004 28.5302 30.0011 28V4C30.0005 3.46975 29.7896 2.9614 29.4146 2.58646C29.0397 2.21152 28.5313 2.00061 28.0011 2ZM28.0011 11H14.0011V4H28.0011V11ZM12.0011 4V11H4.0011V4H12.0011ZM4.0011 28V13H28.0018L28.0031 28H4.0011Z" fill="#50CEC3"/>
</g>
<defs>
<clipPath id="clip0_7924_10806">
<rect width="32" height="32" fill="white"/>
</clipPath>
</defs>
</svg>
