<svg width="32" height="32" viewBox="0 0 32 32" fill="none" xmlns="http://www.w3.org/2000/svg">
<path d="M5.31657 19.5459L3.28992 17.5192C2.46326 16.6926 2.46326 15.3326 3.28992 14.5059L5.31657 12.4792C5.66324 12.1326 5.94324 11.4525 5.94324 10.9725V8.10584C5.94324 6.93251 6.90324 5.97254 8.07657 5.97254H10.9432C11.4232 5.97254 12.1032 5.69258 12.4499 5.34591L14.4766 3.31922C15.3032 2.49255 16.6632 2.49255 17.4899 3.31922L19.5166 5.34591C19.8632 5.69258 20.5432 5.97254 21.0232 5.97254H23.8899C25.0632 5.97254 26.0232 6.93251 26.0232 8.10584V10.9725C26.0232 11.4525 26.3032 12.1326 26.6499 12.4792L28.6766 14.5059C29.5032 15.3326 29.5032 16.6926 28.6766 17.5192L26.6499 19.5459C26.3032 19.8926 26.0232 20.5726 26.0232 21.0526V23.9191C26.0232 25.0924 25.0632 26.0526 23.8899 26.0526H21.0232C20.5432 26.0526 19.8632 26.3326 19.5166 26.6792L17.4899 28.7059C16.6632 29.5326 15.3032 29.5326 14.4766 28.7059L12.4499 26.6792C12.1032 26.3326 11.4232 26.0526 10.9432 26.0526H8.07657C6.90324 26.0526 5.94324 25.0924 5.94324 23.9191V21.0526C5.94324 20.5592 5.66324 19.8792 5.31657 19.5459Z" stroke="#50CEC3" stroke-width="2" stroke-linecap="round" stroke-linejoin="round"/>
<path d="M12 20L20 12" stroke="#50CEC3" stroke-width="2.74219" stroke-linecap="round" stroke-linejoin="round"/>
<path d="M19.3269 19.332H19.3389" stroke="#50CEC3" stroke-width="3.65625" stroke-linecap="round" stroke-linejoin="round"/>
<path d="M12.657 12.668H12.669" stroke="#50CEC3" stroke-width="3.65625" stroke-linecap="round" stroke-linejoin="round"/>
</svg>
