<svg width="18" height="18" viewBox="0 0 18 18" fill="none" xmlns="http://www.w3.org/2000/svg">
<path fill-rule="evenodd" clip-rule="evenodd" d="M15.086 3.92782C15.596 4.40136 15.9375 5.16971 15.9375 6.375V11.625C15.9375 12.8302 15.596 13.5986 15.086 14.0722C14.5685 14.5527 13.7888 14.8125 12.75 14.8125H5.25C4.21125 14.8125 3.43155 14.5527 2.91398 14.0722C2.40405 13.5986 2.0625 12.8302 2.0625 11.625V6.375C2.0625 5.16971 2.40405 4.40136 2.91398 3.92782C3.43155 3.44728 4.21125 3.1875 5.25 3.1875H12.75C13.7888 3.1875 14.5685 3.44728 15.086 3.92782ZM15.8515 3.10342C15.0565 2.36522 13.9612 2.0625 12.75 2.0625H5.25C4.03875 2.0625 2.94345 2.36522 2.14853 3.10342C1.34595 3.84864 0.937502 4.95529 0.937502 6.375V11.625C0.937502 13.0447 1.34595 14.1514 2.14853 14.8966C2.94345 15.6348 4.03875 15.9375 5.25 15.9375H12.75C13.9612 15.9375 15.0565 15.6348 15.8515 14.8966C16.654 14.1514 17.0625 13.0447 17.0625 11.625V6.375C17.0625 4.95529 16.654 3.84864 15.8515 3.10342Z" fill="white"/>
<path fill-rule="evenodd" clip-rule="evenodd" d="M3.47716 5.48422C3.28718 5.73004 3.33248 6.08331 3.57826 6.27325L7.73858 9.48798C8.48138 10.0619 9.51796 10.0619 10.2608 9.48798L14.4211 6.27325C14.6669 6.08331 14.7122 5.73004 14.5222 5.48422C14.3323 5.23839 13.979 5.1931 13.7332 5.38305L9.57293 8.59773C9.23528 8.85865 8.76406 8.85865 8.42648 8.59773L4.26616 5.38305C4.02031 5.1931 3.66706 5.23839 3.47716 5.48422Z" fill="white"/>
</svg>
