<svg width="18" height="16" viewBox="0 0 18 16" fill="none" xmlns="http://www.w3.org/2000/svg">
<path d="M17.413 0.956543H0.586969C0.262793 0.956543 0 1.21934 0 1.54351V14.4565C0 14.7807 0.262793 15.0435 0.586969 15.0435H17.4131C17.7372 15.0435 18 14.7807 18 14.4565V1.54351C18 1.21934 17.7372 0.956543 17.413 0.956543ZM7.04349 5.65219C7.04349 5.00489 7.57009 4.47829 8.21739 4.47829C8.86468 4.47829 9.39129 5.00489 9.39129 5.65219C9.39129 6.29948 8.86468 6.82609 8.21739 6.82609H7.10251C7.06384 6.63639 7.04345 6.44011 7.04345 6.23912V5.65219H7.04349ZM5.86958 13.8696H1.1739V8.00003H4.69565H5.281C4.74504 8.71236 3.89285 9.17393 2.93477 9.17393C2.61063 9.17393 2.3478 9.43672 2.3478 9.7609C2.3478 10.0851 2.6106 10.3479 2.93477 10.3479C4.0834 10.3479 5.12322 9.87389 5.86955 9.11149V13.8696H5.86958ZM5.86958 6.23916C5.86958 6.44014 5.84919 6.63642 5.81052 6.82613H4.69565C4.04835 6.82613 3.52174 6.29952 3.52174 5.65222C3.52174 5.00493 4.04835 4.47832 4.69565 4.47832C5.34294 4.47832 5.86955 5.00493 5.86955 5.65222V6.23916H5.86958ZM5.86958 3.62023C5.52393 3.41977 5.12318 3.30438 4.69568 3.30438C3.40109 3.30438 2.34784 4.35763 2.34784 5.65222C2.34784 6.07972 2.46322 6.4805 2.66368 6.82613H1.1739V2.13045H5.86955V3.62023H5.86958ZM16.8261 13.8696H7.04349V9.11149C7.78982 9.87385 8.82963 10.3479 9.97826 10.3479C10.3024 10.3479 10.5652 10.0851 10.5652 9.7609C10.5652 9.43672 10.3024 9.17393 9.97826 9.17393C9.02018 9.17393 8.16799 8.71236 7.63204 8.00003H8.21739H16.8261V13.8696ZM16.8261 6.82613H10.2493C10.4498 6.48047 10.5652 6.07972 10.5652 5.65222C10.5652 4.35763 9.51195 3.30438 8.21735 3.30438C7.78985 3.30438 7.38907 3.41977 7.04345 3.62023V2.13045H16.8261V6.82613H16.8261Z" fill="#50CEC3"/>
</svg>
