<svg width="30" height="30" viewBox="0 0 30 30" fill="none" xmlns="http://www.w3.org/2000/svg">
<rect width="30" height="30" rx="10" fill="#50CEC3"/>
<path d="M22.9838 17.3253C23.5441 17.3253 23.9999 16.8695 23.9999 16.3093C23.9999 15.749 23.5441 15.2932 22.9838 15.2932H21.7002V14.7074H22.9838C23.5441 14.7074 23.9999 14.2516 23.9999 13.6913C23.9999 13.1311 23.5441 12.6753 22.9838 12.6753H21.7002V12.0894H22.9838C23.544 12.0894 23.9998 11.6336 23.9998 11.0734C23.9998 10.5131 23.544 10.0573 22.9838 10.0573H21.7002V9.47152H22.9838C23.544 9.47152 23.9998 9.01572 23.9998 8.45547C23.9998 7.89522 23.544 7.43945 22.9838 7.43945L19.8761 7.43963C19.2269 7.43963 18.6205 7.6885 18.1686 8.14043C17.7167 8.59236 17.4678 9.19874 17.4678 9.848V20.1162C17.4678 21.2808 18.2912 22.2563 19.3863 22.4921C19.3924 22.4936 19.3984 22.4952 19.4046 22.4964C19.5641 22.5294 19.7292 22.5469 19.8984 22.5469H20.0528C20.0878 22.5562 20.1245 22.5612 20.1624 22.5612H22.9838C23.5441 22.5612 23.9999 22.1054 23.9999 21.5451C23.9999 20.9849 23.5441 20.5291 22.9838 20.5291H21.7002V19.9432H22.9838C23.5441 19.9432 23.9999 19.4874 23.9999 18.9272C23.9999 18.3669 23.5441 17.9111 22.9838 17.9111H21.7002V17.3253H22.9838ZM21.2769 18.7577H22.9838C23.0773 18.7577 23.1533 18.8337 23.1533 18.9272C23.1533 19.0207 23.0773 19.0968 22.9838 19.0968H21.2769C21.0432 19.0968 20.8537 19.2863 20.8537 19.52V20.9524C20.8537 21.1861 21.0432 21.3756 21.2769 21.3756H22.9838C23.0773 21.3756 23.1533 21.4517 23.1533 21.5452C23.1533 21.6387 23.0773 21.7147 22.9838 21.7147H20.272C20.237 21.7054 20.2003 21.7004 20.1624 21.7004H19.9086V11.3053C19.9086 11.0715 19.7191 10.8821 19.4854 10.8821C19.2516 10.8821 19.0621 11.0715 19.0621 11.3053V21.4608C18.6135 21.1808 18.3142 20.683 18.3142 20.1163V9.848C18.3142 8.97219 19.0003 8.28612 19.8761 8.28612L22.9837 8.28594C23.0772 8.28594 23.1533 8.36199 23.1533 8.4555C23.1533 8.54898 23.0773 8.62506 22.9837 8.62506H21.2769C21.0431 8.62506 20.8536 8.81455 20.8536 9.04831V10.4806C20.8536 10.7144 21.0431 10.9039 21.2769 10.9039H22.9837C23.0772 10.9039 23.1533 10.9799 23.1533 11.0734C23.1533 11.167 23.0773 11.243 22.9837 11.243H21.2769C21.0431 11.243 20.8536 11.4325 20.8536 11.6662V13.0985C20.8536 13.3323 21.0431 13.5218 21.2769 13.5218H22.9837C23.0772 13.5218 23.1533 13.5978 23.1533 13.6913C23.1533 13.7848 23.0773 13.8609 22.9837 13.8609H21.2769C21.0431 13.8609 20.8536 14.0504 20.8536 14.2842V15.7165C20.8536 15.9502 21.0431 16.1397 21.2769 16.1397H22.9837C23.0772 16.1397 23.1533 16.2158 23.1533 16.3093C23.1533 16.4028 23.0773 16.4788 22.9837 16.4788H21.2769C21.0431 16.4788 20.8536 16.6683 20.8536 16.9021V18.3344C20.8537 18.5682 21.0432 18.7577 21.2769 18.7577Z" fill="white"/>
<path d="M19.9029 9.95184C19.8974 9.92519 19.8894 9.89851 19.8788 9.87271C19.8682 9.84732 19.8551 9.82275 19.8399 9.7999C19.8242 9.77662 19.8068 9.75504 19.7869 9.73556C19.7675 9.71608 19.7459 9.69833 19.7226 9.68265C19.6998 9.66743 19.6752 9.65428 19.6498 9.6437C19.6244 9.63312 19.5977 9.62507 19.5707 9.61958C19.5161 9.60858 19.4598 9.60858 19.4052 9.61958C19.3781 9.62507 19.3514 9.63312 19.3261 9.6437C19.3007 9.65428 19.2757 9.66739 19.2528 9.68265C19.23 9.6983 19.208 9.71608 19.1885 9.73556C19.169 9.75504 19.1513 9.77662 19.136 9.7999C19.1208 9.82275 19.1076 9.84729 19.097 9.87271C19.0865 9.89851 19.0784 9.92519 19.0729 9.95184C19.0674 9.97937 19.0645 10.0073 19.0645 10.0348C19.0645 10.0623 19.0674 10.0903 19.0729 10.1174C19.0784 10.1445 19.0865 10.1711 19.097 10.1965C19.1076 10.2223 19.1207 10.2469 19.136 10.2697C19.1512 10.293 19.169 10.3146 19.1885 10.3341C19.208 10.3535 19.23 10.3713 19.2528 10.3865C19.2757 10.4018 19.3006 10.4149 19.3261 10.4255C19.3514 10.4361 19.3781 10.4441 19.4052 10.4496C19.4327 10.4551 19.4602 10.4581 19.4882 10.4581C19.5157 10.4581 19.5432 10.4551 19.5707 10.4496C19.5978 10.4441 19.6245 10.4361 19.6498 10.4255C19.6752 10.4149 19.6998 10.4018 19.7226 10.3865C19.7459 10.3713 19.7675 10.3535 19.787 10.3341C19.8069 10.3146 19.8242 10.293 19.8399 10.2697C19.8551 10.2469 19.8683 10.2223 19.8788 10.1965C19.8894 10.1711 19.8975 10.1444 19.903 10.1174C19.9084 10.0903 19.911 10.0623 19.911 10.0348C19.911 10.0073 19.9084 9.97937 19.9029 9.95184Z" fill="white"/>
<path d="M10.0117 19.9104C9.97032 19.5737 9.80031 19.2732 9.53295 19.0643C9.24797 18.8416 8.95129 18.7949 8.75251 18.7949C8.35785 18.7949 7.9924 18.9729 7.74997 19.2832C7.54107 19.5505 7.44878 19.8833 7.49013 20.22C7.53147 20.5567 7.70149 20.8573 7.96885 21.0661C8.25382 21.2888 8.55051 21.3355 8.74928 21.3355C9.14394 21.3355 9.50936 21.1575 9.75183 20.8472C9.96076 20.5799 10.053 20.2472 10.0117 19.9104ZM9.08485 20.3261C9.00392 20.4297 8.88164 20.4891 8.74935 20.4891C8.65369 20.4891 8.56647 20.4588 8.49011 20.3992C8.40088 20.3295 8.34418 20.2292 8.33036 20.1169C8.31658 20.0046 8.34734 19.8936 8.41705 19.8044C8.49798 19.7008 8.62022 19.6414 8.75251 19.6414C8.84817 19.6414 8.9354 19.6717 9.01176 19.7314C9.10098 19.8011 9.15769 19.9013 9.17151 20.0136C9.18529 20.126 9.15453 20.2369 9.08485 20.3261Z" fill="white"/>
<path d="M15.6562 18.3713C14.8707 17.3659 13.5207 17.0558 12.4 17.538L15.0475 13.5695C15.049 13.5672 15.0505 13.5649 15.052 13.5627C15.8223 12.3581 15.939 10.8573 15.3644 9.54804L14.4367 7.4348C14.3707 7.28447 14.2237 7.18586 14.0595 7.18178C13.8946 7.17784 13.7437 7.269 13.6704 7.41595L11.1192 12.5299L8.56799 7.41595C8.49469 7.269 8.34331 7.17759 8.17885 7.18178C8.01471 7.18579 7.86768 7.2844 7.8017 7.4348L6.87403 9.54804C6.2993 10.8573 6.41609 12.3581 7.18639 13.5627C7.18797 13.5651 7.18956 13.5676 7.19117 13.57L9.84768 17.5412C9.40186 17.3465 8.91059 17.2735 8.4151 17.3343C7.68561 17.4238 7.03466 17.7922 6.5822 18.3713C5.6481 19.5669 5.86086 21.2996 7.05645 22.2336C7.54513 22.6154 8.13448 22.8173 8.74494 22.8173C8.858 22.8173 8.97183 22.8104 9.08581 22.7964C9.8153 22.7068 10.4663 22.3385 10.9187 21.7594C10.9926 21.6649 11.059 21.5662 11.1192 21.4647C11.1794 21.5662 11.2458 21.6648 11.3197 21.7594C11.8617 22.453 12.6722 22.8158 13.4909 22.8158C14.0834 22.8158 14.6801 22.6257 15.182 22.2335C16.3776 21.2996 16.5903 19.5669 15.6562 18.3713ZM9.57909 15.6172L7.89732 13.103C7.28181 12.138 7.18899 10.9365 7.64919 9.88824L8.2138 8.60205L10.6462 13.478L9.57909 15.6172ZM10.2517 21.2382C9.93838 21.6393 9.48772 21.8942 8.98266 21.9562C8.47761 22.0183 7.9786 21.8798 7.57761 21.5666C7.17658 21.2533 6.92163 20.8026 6.85962 20.2975C6.7976 19.7925 6.93597 19.2935 7.24929 18.8925C7.56256 18.4915 8.01323 18.2365 8.51828 18.1745C8.59721 18.1648 8.67603 18.16 8.75429 18.16C9.17694 18.16 9.58503 18.2998 9.92334 18.5641C10.3244 18.8774 10.5793 19.3281 10.6413 19.8332C10.7033 20.3382 10.5649 20.8372 10.2517 21.2382ZM11.0896 17.9768L10.6229 17.179C10.6228 17.1789 10.6228 17.1788 10.6227 17.1787L10.1495 16.37L14.0246 8.60205L14.5892 9.88824C15.0495 10.9366 14.9566 12.1382 14.341 13.1032L11.0896 17.9768ZM14.6608 21.5666C13.8331 22.2133 12.6335 22.066 11.9867 21.2382C11.6734 20.8372 11.535 20.3382 11.5971 19.8332C11.6591 19.3281 11.9141 18.8774 12.315 18.5641C12.6534 18.2998 13.0614 18.16 13.4841 18.16C13.5624 18.16 13.6412 18.1647 13.7201 18.1744C14.2252 18.2365 14.6759 18.4915 14.9892 18.8924C15.6359 19.7203 15.4886 20.9199 14.6608 21.5666Z" fill="white"/>
<path d="M14.4872 19.2832C14.2448 18.9729 13.8794 18.7949 13.4846 18.7949C13.2859 18.7949 12.9892 18.8416 12.7042 19.0643C12.4368 19.2732 12.2668 19.5737 12.2255 19.9104C12.1841 20.2472 12.2764 20.5799 12.4853 20.8472C12.7277 21.1576 13.0931 21.3356 13.4879 21.3356C13.6866 21.3356 13.9833 21.2889 14.2683 21.0662C14.5353 20.8575 14.7052 20.557 14.7466 20.22C14.788 19.8829 14.6958 19.5503 14.4872 19.2832ZM13.9064 20.1168C13.8926 20.2294 13.8361 20.3297 13.7471 20.3991C13.6708 20.4588 13.5836 20.489 13.4879 20.489C13.3555 20.489 13.2332 20.4296 13.1523 20.326C13.0826 20.2369 13.0518 20.1259 13.0656 20.0136C13.0794 19.9013 13.1361 19.801 13.2254 19.7313C13.3017 19.6716 13.3889 19.6414 13.4846 19.6414C13.6169 19.6414 13.7392 19.7008 13.8201 19.8044C13.8896 19.8933 13.9202 20.0042 13.9064 20.1168Z" fill="white"/>
<path d="M13.4576 11.6837C13.2498 11.5768 12.9945 11.6585 12.8876 11.8663L10.923 15.6825C10.816 15.8903 10.8978 16.1455 11.1056 16.2525C11.1676 16.2844 11.2337 16.2995 11.299 16.2995C11.4524 16.2995 11.6006 16.2157 11.6757 16.0699L13.6402 12.2537C13.7472 12.0459 13.6654 11.7907 13.4576 11.6837Z" fill="white"/>
<path d="M14.2604 10.8483C14.2549 10.8213 14.2468 10.795 14.2362 10.7692C14.2257 10.7438 14.2125 10.7192 14.1973 10.6964C14.1816 10.6731 14.1643 10.6515 14.1448 10.632C14.1249 10.6121 14.1033 10.5948 14.08 10.5791C14.0572 10.5639 14.0326 10.5508 14.0072 10.5402C13.9818 10.5296 13.9552 10.5215 13.9281 10.5161C13.8735 10.5051 13.8172 10.5051 13.7626 10.5161C13.7355 10.5215 13.7089 10.5296 13.6835 10.5402C13.6581 10.5508 13.6331 10.5639 13.6102 10.5791C13.587 10.5948 13.5654 10.6121 13.5459 10.632C13.5264 10.6515 13.5087 10.6731 13.4934 10.6964C13.4782 10.7192 13.465 10.7438 13.4545 10.7692C13.4439 10.795 13.4358 10.8213 13.4303 10.8483C13.4249 10.8759 13.4219 10.9033 13.4219 10.9313C13.4219 11.0426 13.4672 11.1518 13.5459 11.2305C13.5654 11.25 13.5869 11.2678 13.6102 11.283C13.6331 11.2983 13.658 11.3114 13.6834 11.322C13.7089 11.3326 13.7355 11.3406 13.7626 11.3461C13.7896 11.3516 13.8176 11.3546 13.8451 11.3546C13.8731 11.3546 13.9006 11.3516 13.9281 11.3461C13.9552 11.3406 13.9818 11.3326 14.0072 11.322C14.0326 11.3114 14.0572 11.2983 14.08 11.283C14.1033 11.2678 14.1249 11.25 14.1448 11.2305C14.2235 11.1518 14.2684 11.0426 14.2684 10.9313C14.2684 10.9033 14.2659 10.8758 14.2604 10.8483Z" fill="white"/>
</svg>
