<svg width="11" height="15" viewBox="0 0 11 15" fill="none" xmlns="http://www.w3.org/2000/svg">
<path d="M1 5.18184C1 4.35476 1.24527 3.54624 1.70477 2.85854C2.16428 2.17083 2.81743 1.63484 3.58159 1.31832C4.34562 1.00181 5.18645 0.918996 5.99772 1.08036C6.80886 1.24171 7.55407 1.63999 8.13883 2.22483C8.72373 2.80968 9.12198 3.55481 9.2834 4.36601C9.44468 5.1772 9.36188 6.01807 9.04531 6.78224C8.72889 7.54626 8.19291 8.19946 7.50514 8.65891C6.8175 9.11849 6.00888 9.36369 5.18185 9.36369V10.7576" stroke="white" stroke-width="2" stroke-linecap="round" stroke-linejoin="round"/>
<path d="M5.30303 14C5.30303 14.1674 5.16736 14.303 5 14.303C4.83264 14.303 4.69697 14.1674 4.69697 14C4.69697 13.8326 4.83264 13.697 5 13.697C5.16736 13.697 5.30303 13.8326 5.30303 14Z" fill="white" stroke="white" stroke-width="1.39395"/>
</svg>
