<svg width="18" height="18" viewBox="0 0 18 18" fill="none" xmlns="http://www.w3.org/2000/svg">
<path d="M6.19772 16.2997C6.90235 16.2997 7.47356 15.7285 7.47356 15.0239C7.47356 14.3193 6.90235 13.748 6.19772 13.748C5.49309 13.748 4.92188 14.3193 4.92188 15.0239C4.92188 15.7285 5.49309 16.2997 6.19772 16.2997Z" stroke="#50CEC3" stroke-width="0.75" stroke-linecap="round" stroke-linejoin="round"/>
<path d="M8.703 15.0241C8.7127 15.5328 8.57008 16.0328 8.29347 16.4599C8.01686 16.8869 7.61889 17.2215 7.15068 17.4207C6.68247 17.6199 6.1654 17.6746 5.6659 17.5777C5.16639 17.4808 4.70725 17.2368 4.34746 16.877C3.98768 16.5172 3.74367 16.0581 3.64679 15.5586C3.5499 15.0591 3.60456 14.542 3.80374 14.0738C4.00293 13.6056 4.33754 13.2076 4.7646 12.931C5.19166 12.6544 5.69166 12.5118 6.20039 12.5215C6.50627 12.5153 6.80916 12.5827 7.08366 12.7177C7.4633 12.836 7.80292 13.0567 8.06508 13.3557C8.47571 13.8144 8.70283 14.4084 8.703 15.0241Z" stroke="#50CEC3" stroke-width="0.75" stroke-linecap="round" stroke-linejoin="round"/>
<path d="M11.8964 16.2992C12.6011 16.2992 13.1723 15.728 13.1723 15.0234C13.1723 14.3188 12.6011 13.7476 11.8964 13.7476C11.1918 13.7476 10.6206 14.3188 10.6206 15.0234C10.6206 15.728 11.1918 16.2992 11.8964 16.2992Z" stroke="#50CEC3" stroke-width="0.75" stroke-linecap="round" stroke-linejoin="round"/>
<path d="M11.8964 17.5262C13.2786 17.5262 14.399 16.4058 14.399 15.0236C14.399 13.6415 13.2786 12.521 11.8964 12.521C10.5143 12.521 9.3938 13.6415 9.3938 15.0236C9.3938 16.4058 10.5143 17.5262 11.8964 17.5262Z" stroke="#50CEC3" stroke-width="0.75" stroke-linecap="round" stroke-linejoin="round"/>
<path d="M11.9911 2.6579C11.982 2.84133 11.949 3.02279 11.8929 3.19768L9.83196 8.64455L9.04682 10.8037L8.0654 13.3553C7.80324 13.0564 7.46362 12.8356 7.08398 12.7174L8.21262 8.64455L9.04682 5.74936L10.4699 0.645996C10.9104 0.765527 11.2989 1.02794 11.5742 1.39207C11.8495 1.7562 11.9961 2.20143 11.9911 2.6579Z" stroke="#50CEC3" stroke-width="0.75" stroke-linecap="round" stroke-linejoin="round"/>
<path d="M10.0273 13.3556L9.0459 10.7549" stroke="#50CEC3" stroke-width="0.75" stroke-linecap="round" stroke-linejoin="round"/>
<path d="M8.21086 8.64455L6.14989 3.19768C6.06079 2.93362 6.02895 2.65361 6.05647 2.37629C6.084 2.09896 6.17027 1.83068 6.30953 1.58929C6.4488 1.34789 6.63787 1.13892 6.86417 0.976275C7.09047 0.81363 7.34882 0.701042 7.62201 0.645996L9.04507 5.74936" stroke="#50CEC3" stroke-width="0.75" stroke-linecap="round" stroke-linejoin="round"/>
<path d="M10.9585 12.7174L9.82983 8.64453" stroke="#50CEC3" stroke-width="0.75" stroke-linecap="round" stroke-linejoin="round"/>
</svg>
