<svg width="32" height="34" viewBox="0 0 32 34" fill="none" xmlns="http://www.w3.org/2000/svg">
<path d="M15.5292 3.0574H6.32859L5.48253 20.4738C5.37678 22.2717 6.7516 23.7324 8.33792 23.7324H13.5199C15.212 23.7324 16.481 22.2717 16.3753 20.4738L15.5292 3.0574Z" stroke="#50CEC3" stroke-width="1.5" stroke-miterlimit="10" stroke-linecap="round" stroke-linejoin="round"/>
<path d="M13.9438 28.1133H7.91577V23.6187H13.9438V28.1133Z" stroke="#50CEC3" stroke-width="1.5" stroke-miterlimit="10" stroke-linecap="round" stroke-linejoin="round"/>
<path d="M12.8857 7.77553H9.18425L8.12671 18.5625H13.8375L12.8857 7.77553Z" stroke="#50CEC3" stroke-width="1.5" stroke-miterlimit="10" stroke-linecap="round" stroke-linejoin="round"/>
<path d="M15.6345 4.96724H26.21V21.3724C26.21 23.0579 24.9409 24.4062 23.3546 24.4062H18.8072C17.5381 24.4062 16.3748 23.5073 16.0575 22.159" stroke="#50CEC3" stroke-width="1.5" stroke-miterlimit="10" stroke-linecap="round" stroke-linejoin="round"/>
<path d="M24.3064 24.4052H17.6438V30.4729C19.8646 31.1471 22.0855 31.1471 24.3064 30.4729V24.4052Z" stroke="#50CEC3" stroke-width="1.5" stroke-miterlimit="10" stroke-linecap="round" stroke-linejoin="round"/>
</svg>
