<svg width="18" height="18" viewBox="0 0 18 18" fill="none" xmlns="http://www.w3.org/2000/svg">
<path d="M3 7.60748C3 4.23441 5.68629 1.5 9 1.5C12.3137 1.5 15 4.23441 15 7.60748C15 10.9541 13.085 14.8593 10.0972 16.2558C9.40072 16.5814 8.59927 16.5814 7.90282 16.2558C4.91499 14.8593 3 10.9541 3 7.60748Z" stroke="white" stroke-width="1.35"/>
<path d="M9 9.75C10.2426 9.75 11.25 8.74264 11.25 7.5C11.25 6.25736 10.2426 5.25 9 5.25C7.75736 5.25 6.75 6.25736 6.75 7.5C6.75 8.74264 7.75736 9.75 9 9.75Z" stroke="white" stroke-width="1.35"/>
</svg>
