<svg width="18" height="18" viewBox="0 0 18 18" fill="none" xmlns="http://www.w3.org/2000/svg">
<path d="M15.517 8.00195H9.86841V9.12695H15.517V8.00195Z" fill="#50CEC3"/>
<path d="M5.25816 10.6672C6.23416 10.6672 7.02536 9.876 7.02536 8.90001C7.02536 7.92401 6.23416 7.13281 5.25816 7.13281C4.28217 7.13281 3.49097 7.92401 3.49097 8.90001C3.49097 9.876 4.28217 10.6672 5.25816 10.6672Z" fill="#50CEC3"/>
<path d="M5.25909 11.0508C3.7313 11.0508 2.4915 12.4095 2.46094 14.0976H8.05725C8.02668 12.4095 6.78689 11.0508 5.25909 11.0508Z" fill="#50CEC3"/>
<path d="M15.5375 10.0645H9.8894V11.1895H15.5375V10.0645Z" fill="#50CEC3"/>
<path d="M15.5375 12.1035H9.8894V13.2285H15.5375V12.1035Z" fill="#50CEC3"/>
<path d="M18 4.70442H10.8984V3.2336C10.8984 2.27064 10.036 1.4873 8.97638 1.4873C7.91677 1.4873 7.05486 2.27064 7.05486 3.2336V4.70442H0V16.5125H18V4.70442ZM8.17986 3.2336C8.17986 2.89685 8.5446 2.6123 8.97638 2.6123C9.40867 2.6123 9.77345 2.89685 9.77345 3.2336V4.70442H8.1799V3.2336H8.17986ZM16.875 15.3875H1.125V5.82942H16.875V15.3875Z" fill="#50CEC3"/>
</svg>
