<svg width="32" height="32" viewBox="0 0 32 32" fill="none" xmlns="http://www.w3.org/2000/svg">
<path d="M17.4214 26.6662C17.4214 26.8548 17.3464 27.0357 17.2131 27.169C17.0797 27.3024 16.8988 27.3773 16.7102 27.3773H15.288C15.0994 27.3773 14.9185 27.3024 14.7852 27.169C14.6518 27.0357 14.5769 26.8548 14.5769 26.6662C14.5769 26.4776 14.6518 26.2967 14.7852 26.1634C14.9185 26.03 15.0994 25.9551 15.288 25.9551H16.7102C16.8988 25.9551 17.0797 26.03 17.2131 26.1634C17.3464 26.2967 17.4214 26.4776 17.4214 26.6662Z" fill="#50CEC3"/>
<path d="M22.4005 1.77734H9.60048C8.65779 1.77832 7.75399 2.15324 7.0874 2.81982C6.42082 3.48641 6.0459 4.39021 6.04492 5.3329V26.6663C6.04579 27.609 6.42067 28.5128 7.08728 29.1795C7.75389 29.8461 8.65775 30.2209 9.60048 30.2218H22.4005C23.3432 30.2209 24.2471 29.8461 24.9137 29.1795C25.5803 28.5128 25.9552 27.609 25.9561 26.6663V5.3329C25.9551 4.39021 25.5802 3.48641 24.9136 2.81982C24.247 2.15324 23.3432 1.77832 22.4005 1.77734ZM18.406 3.19957L17.6949 4.62179H14.306L13.5949 3.19957H18.406ZM24.5338 26.6663C24.5332 27.2319 24.3082 27.7741 23.9083 28.174C23.5083 28.574 22.9661 28.799 22.4005 28.7996H9.60048C9.03488 28.799 8.49263 28.574 8.09269 28.174C7.69275 27.7741 7.46779 27.2319 7.46715 26.6663V5.3329C7.46779 4.7673 7.69275 4.22505 8.09269 3.82511C8.49263 3.42517 9.03488 3.20021 9.60048 3.19957H12.0053L13.231 5.65091C13.2901 5.76905 13.3809 5.86841 13.4932 5.93784C13.6056 6.00727 13.7351 6.04404 13.8672 6.04401H18.1338C18.2659 6.04404 18.3954 6.00727 18.5077 5.93784C18.6201 5.86841 18.7109 5.76905 18.77 5.65091L19.9957 3.19957H22.4005C22.9661 3.20021 23.5083 3.42517 23.9083 3.82511C24.3082 4.22505 24.5332 4.7673 24.5338 5.3329V26.6663Z" fill="#50CEC3"/>
</svg>
