<svg width="32" height="32" viewBox="0 0 32 32" fill="none" xmlns="http://www.w3.org/2000/svg">
<path d="M23.5091 5.13101H21.6322V3.25714C21.6322 2.95895 21.5136 2.67297 21.3023 2.46212C21.0912 2.25127 20.8048 2.13281 20.5061 2.13281C20.2075 2.13281 19.921 2.25127 19.7099 2.46212C19.4986 2.67297 19.38 2.95895 19.38 3.25714V5.13101H12.6234V3.25714C12.6234 2.95895 12.5048 2.67297 12.2936 2.46212C12.0824 2.25127 11.796 2.13281 11.4973 2.13281C11.1987 2.13281 10.9122 2.25127 10.701 2.46212C10.4899 2.67297 10.3712 2.95895 10.3712 3.25714V5.13101H8.49439C7.39929 5.13101 6.34906 5.56535 5.57473 6.33848C4.80038 7.11159 4.36536 8.16017 4.36536 9.25353V25.7436C4.36536 26.8369 4.80038 27.8855 5.57473 28.6586C6.34906 29.4319 7.39929 29.8661 8.49439 29.8661H23.5091C24.6041 29.8661 25.6543 29.4319 26.4287 28.6586C27.2031 27.8855 27.6381 26.8369 27.6381 25.7436V9.25353C27.6381 8.16017 27.2031 7.11159 26.4287 6.33848C25.6543 5.56535 24.6041 5.13101 23.5091 5.13101ZM8.49439 7.37966H10.3712V9.25353C10.3712 9.55172 10.4899 9.8377 10.701 10.0486C10.9122 10.2594 11.1987 10.3779 11.4973 10.3779C11.796 10.3779 12.0824 10.2594 12.2936 10.0486C12.5048 9.8377 12.6234 9.55172 12.6234 9.25353V7.37966H19.38V9.25353C19.38 9.55172 19.4986 9.8377 19.7099 10.0486C19.921 10.2594 20.2075 10.3779 20.5061 10.3779C20.8048 10.3779 21.0912 10.2594 21.3023 10.0486C21.5136 9.8377 21.6322 9.55172 21.6322 9.25353V7.37966H23.5091C24.0068 7.37966 24.4843 7.57709 24.8362 7.92851C25.1881 8.27993 25.3859 8.75655 25.3859 9.25353V13.3761H6.61756V9.25353C6.61756 8.75655 6.8153 8.27993 7.16727 7.92851C7.51925 7.57709 7.99662 7.37966 8.49439 7.37966ZM23.5091 27.6175H8.49439C7.99662 27.6175 7.51925 27.4201 7.16727 27.0687C6.8153 26.7173 6.61756 26.2406 6.61756 25.7436V15.6247H25.3859V25.7436C25.3859 26.2406 25.1881 26.7173 24.8362 27.0687C24.4843 27.4201 24.0068 27.6175 23.5091 27.6175Z" fill="#50CEC3"/>
</svg>
