<svg width="32" height="32" viewBox="0 0 32 32" fill="none" xmlns="http://www.w3.org/2000/svg">
<path d="M26.5594 8.26828L15.5594 2.24953C15.2655 2.08714 14.9352 2.00195 14.5994 2.00195C14.2636 2.00195 13.9333 2.08714 13.6394 2.24953L2.63937 8.27078C2.32523 8.44266 2.06299 8.69573 1.88005 9.00356C1.69712 9.3114 1.60018 9.6627 1.59937 10.0208V21.9758C1.60018 22.3339 1.69712 22.6852 1.88005 22.993C2.06299 23.3008 2.32523 23.5539 2.63937 23.7258L13.6394 29.747C13.9333 29.9094 14.2636 29.9946 14.5994 29.9946C14.9352 29.9946 15.2655 29.9094 15.5594 29.747L26.5594 23.7258C26.8735 23.5539 27.1357 23.3008 27.3187 22.993C27.5016 22.6852 27.5986 22.3339 27.5994 21.9758V10.022C27.5992 9.66331 27.5026 9.31123 27.3196 9.00268C27.1367 8.69413 26.8741 8.44047 26.5594 8.26828ZM14.5994 3.99953L24.6419 9.49953L20.9206 11.537L10.8769 6.03703L14.5994 3.99953ZM14.5994 14.9995L4.55687 9.49953L8.79436 7.17953L18.8369 12.6795L14.5994 14.9995ZM3.59937 11.2495L13.5994 16.722V27.4458L3.59937 21.977V11.2495ZM25.5994 21.972L15.5994 27.4458V16.727L19.5994 14.5383V18.9995C19.5994 19.2647 19.7047 19.5191 19.8923 19.7066C20.0798 19.8942 20.3341 19.9995 20.5994 19.9995C20.8646 19.9995 21.1189 19.8942 21.3065 19.7066C21.494 19.5191 21.5994 19.2647 21.5994 18.9995V13.4433L25.5994 11.2495V21.9708V21.972Z" fill="#50CEC3"/>
</svg>
