<svg width="18" height="18" viewBox="0 0 18 18" fill="none" xmlns="http://www.w3.org/2000/svg">
<path d="M0.6 9C0.6 9.77734 0.652091 10.4964 0.75449 11.1583C1.08459 13.2921 1.93427 14.8251 3.25744 15.8357C4.59119 16.8542 6.48186 17.4 9 17.4C11.5181 17.4 13.4088 16.8542 14.7426 15.8357C16.0657 14.8251 16.9154 13.2921 17.2455 11.1583C17.3479 10.4964 17.4 9.77734 17.4 9C17.4 8.22266 17.3479 7.50364 17.2455 6.84173C16.9154 4.70792 16.0657 3.17486 14.7426 2.16434C13.4088 1.14575 11.5181 0.6 9 0.6C6.48186 0.6 4.59119 1.14575 3.25744 2.16434C1.93427 3.17486 1.08459 4.70792 0.754489 6.84173C0.652091 7.50364 0.6 8.22266 0.6 9Z" stroke="#50CEC3" stroke-width="1.2" stroke-linecap="round" stroke-linejoin="round"/>
<path d="M11.4 9C11.4 11.2271 11.0708 13.4134 10.5504 15.0242C10.2891 15.833 9.99012 16.4635 9.68446 16.8789C9.36712 17.3102 9.1285 17.4 9 17.4C8.8715 17.4 8.63288 17.3102 8.31554 16.8789C8.00988 16.4635 7.71091 15.833 7.44962 15.0242C6.92923 13.4134 6.6 11.2271 6.6 9C6.6 6.77293 6.92923 4.58663 7.44962 2.97582C7.71091 2.16703 8.00988 1.53652 8.31554 1.12111C8.63288 0.689816 8.8715 0.6 9 0.6C9.1285 0.6 9.36712 0.689816 9.68446 1.12111C9.99012 1.53652 10.2891 2.16703 10.5504 2.97582C11.0708 4.58663 11.4 6.77293 11.4 9Z" stroke="#50CEC3" stroke-width="1.2"/>
</svg>
