<svg width="32" height="32" viewBox="0 0 32 32" fill="none" xmlns="http://www.w3.org/2000/svg">
<path d="M23.5223 28.7407H8.92732C6.19732 28.7407 3.9923 26.6794 3.8873 23.9997L3.3623 14.4147C3.3623 14.2085 3.46732 14.1055 3.67732 14.1055H28.5623C28.7723 14.1055 28.8773 14.2085 28.8773 14.4147L28.3523 23.9997C28.3523 26.6794 26.1473 28.7407 23.5223 28.7407Z" stroke="#50CEC3" stroke-width="1.5" stroke-miterlimit="10" stroke-linecap="round" stroke-linejoin="round"/>
<path d="M3.3623 20.9082H10.7123" stroke="#50CEC3" stroke-width="1.5" stroke-miterlimit="10" stroke-linecap="round" stroke-linejoin="round"/>
<path d="M21.2124 20.9082H28.5624" stroke="#50CEC3" stroke-width="1.5" stroke-miterlimit="10" stroke-linecap="round" stroke-linejoin="round"/>
<path d="M16.1728 24.4124C19.0143 24.4124 21.3178 23.0281 21.3178 21.3205C21.3178 19.6128 19.0143 18.2285 16.1728 18.2285C13.3313 18.2285 11.0278 19.6128 11.0278 21.3205C11.0278 23.0281 13.3313 24.4124 16.1728 24.4124Z" stroke="#50CEC3" stroke-width="1.5" stroke-miterlimit="10" stroke-linecap="round" stroke-linejoin="round"/>
<path d="M26.8801 9.26172H5.67017V14.2089H26.8801V9.26172Z" stroke="#50CEC3" stroke-width="1.5" stroke-miterlimit="10" stroke-linecap="round" stroke-linejoin="round"/>
<path d="M4.62012 11.7363H27.8251" stroke="#50CEC3" stroke-width="1.5" stroke-miterlimit="10" stroke-linecap="round" stroke-linejoin="round"/>
<path d="M7.98005 9.26084C7.98005 9.26084 7.35007 4.10758 13.0201 2.35547C13.0201 2.35547 15.4351 8.74552 26.7751 9.26084" stroke="#50CEC3" stroke-width="1.5" stroke-miterlimit="10" stroke-linecap="round" stroke-linejoin="round"/>
<path d="M9.03101 5.24219C9.03101 5.24219 9.76603 6.58204 11.026 6.89124" stroke="#50CEC3" stroke-width="1.5" stroke-miterlimit="10" stroke-linecap="round" stroke-linejoin="round"/>
</svg>
