<svg width="18" height="18" viewBox="0 0 18 18" fill="none" xmlns="http://www.w3.org/2000/svg">
<path d="M12.9853 16.02H5.26431C3.82009 16.02 2.65359 14.909 2.59805 13.4648L2.32031 8.29896C2.32031 8.18786 2.37587 8.13232 2.48696 8.13232H15.6516C15.7627 8.13232 15.8182 8.18786 15.8182 8.29896L15.5405 13.4648C15.5405 14.909 14.374 16.02 12.9853 16.02Z" stroke="#50CEC3" stroke-miterlimit="10" stroke-linecap="round" stroke-linejoin="round"/>
<path d="M2.32031 11.7983H6.20859" stroke="#50CEC3" stroke-miterlimit="10" stroke-linecap="round" stroke-linejoin="round"/>
<path d="M11.7632 11.7983H15.6515" stroke="#50CEC3" stroke-miterlimit="10" stroke-linecap="round" stroke-linejoin="round"/>
<path d="M9.09557 13.6868C10.5988 13.6868 11.8174 12.9407 11.8174 12.0204C11.8174 11.1001 10.5988 10.354 9.09557 10.354C7.59237 10.354 6.37378 11.1001 6.37378 12.0204C6.37378 12.9407 7.59237 13.6868 9.09557 13.6868Z" stroke="#50CEC3" stroke-miterlimit="10" stroke-linecap="round" stroke-linejoin="round"/>
<path d="M14.7607 5.52148H3.54028V8.18774H14.7607V5.52148Z" stroke="#50CEC3" stroke-miterlimit="10" stroke-linecap="round" stroke-linejoin="round"/>
<path d="M2.98486 6.85449H15.2607" stroke="#50CEC3" stroke-miterlimit="10" stroke-linecap="round" stroke-linejoin="round"/>
<path d="M4.76053 5.52144C4.76053 5.52144 4.42726 2.7441 7.42679 1.7998C7.42679 1.7998 8.70437 5.24371 14.7034 5.52144" stroke="#50CEC3" stroke-miterlimit="10" stroke-linecap="round" stroke-linejoin="round"/>
<path d="M5.31567 3.35498C5.31567 3.35498 5.70452 4.07709 6.37108 4.24373" stroke="#50CEC3" stroke-miterlimit="10" stroke-linecap="round" stroke-linejoin="round"/>
</svg>
