<svg width="18" height="18" viewBox="0 0 18 18" fill="none" xmlns="http://www.w3.org/2000/svg">
<path fill-rule="evenodd" clip-rule="evenodd" d="M7.45776 0.9375H10.5401C11.5658 0.937485 12.3925 0.93747 13.0427 1.02489C13.7178 1.11566 14.2862 1.30982 14.7376 1.76126C15.1891 2.2127 15.3832 2.78111 15.4741 3.45619C15.5614 4.10642 15.5614 4.93316 15.5614 5.95885V12.0412C15.5614 13.0669 15.5614 13.8936 15.4741 14.5438C15.3832 15.2189 15.1891 15.7873 14.7376 16.2388C14.2862 16.6902 13.7178 16.8844 13.0427 16.9751C12.3925 17.0625 11.5657 17.0625 10.5401 17.0625H7.45777C6.43208 17.0625 5.60533 17.0625 4.95511 16.9751C4.28003 16.8844 3.71162 16.6902 3.26018 16.2388C2.80874 15.7873 2.61458 15.2189 2.52381 14.5438C2.49479 14.3279 2.4754 14.0927 2.46245 13.837C2.43314 13.7445 2.42744 13.6434 2.45049 13.5426C2.4364 13.0987 2.43641 12.5993 2.43642 12.0412V5.95885C2.43641 4.93316 2.43639 4.10642 2.52381 3.45619C2.61458 2.78111 2.80874 2.2127 3.26018 1.76126C3.71162 1.30982 4.28003 1.11566 4.9551 1.02489C5.60533 0.93747 6.43207 0.937485 7.45776 0.9375ZM3.58148 13.6868C3.59288 13.9522 3.61076 14.1855 3.63878 14.3939C3.71277 14.9443 3.8481 15.2357 4.05568 15.4432C4.26325 15.6508 4.55468 15.7861 5.10501 15.8602C5.67152 15.9363 6.42236 15.9375 7.49893 15.9375H10.4989C11.5755 15.9375 12.3263 15.9363 12.8929 15.8602C13.4431 15.7861 13.7346 15.6508 13.9422 15.4432C14.0894 15.296 14.2003 15.1066 14.2787 14.8125H5.99892C5.68826 14.8125 5.43642 14.5606 5.43642 14.25C5.43642 13.9394 5.68826 13.6875 5.99892 13.6875H14.4163C14.4302 13.3643 14.4346 12.9935 14.4358 12.5625H5.92225C5.18856 12.5625 4.93205 12.5673 4.73549 12.62C4.196 12.7646 3.76592 13.1656 3.58148 13.6868ZM14.4364 11.4375H5.92225C5.89287 11.4375 5.86393 11.4375 5.83541 11.4375C5.22193 11.4373 4.80332 11.4371 4.44432 11.5334C4.12334 11.6194 3.82559 11.7599 3.56142 11.9444V6C3.56142 4.92344 3.56261 4.1726 3.63878 3.60609C3.71277 3.05576 3.8481 2.76433 4.05568 2.55676C4.26325 2.34919 4.55468 2.21385 5.10501 2.13986C5.67152 2.06369 6.42236 2.0625 7.49893 2.0625H10.4989C11.5755 2.0625 12.3263 2.06369 12.8929 2.13986C13.4431 2.21385 13.7346 2.34919 13.9422 2.55676C14.1497 2.76433 14.2851 3.05576 14.359 3.60609C14.4352 4.1726 14.4364 4.92344 14.4364 6V11.4375ZM5.43642 5.25C5.43642 4.93934 5.68826 4.6875 5.99892 4.6875H11.9989C12.3096 4.6875 12.5614 4.93934 12.5614 5.25C12.5614 5.56066 12.3096 5.8125 11.9989 5.8125H5.99892C5.68826 5.8125 5.43642 5.56066 5.43642 5.25ZM5.43642 7.875C5.43642 7.56435 5.68826 7.3125 5.99892 7.3125H9.74893C10.0596 7.3125 10.3114 7.56435 10.3114 7.875C10.3114 8.18565 10.0596 8.4375 9.74893 8.4375H5.99892C5.68826 8.4375 5.43642 8.18565 5.43642 7.875Z" fill="#50CEC3"/>
</svg>
