<svg width="18" height="18" viewBox="0 0 18 18" fill="none" xmlns="http://www.w3.org/2000/svg">
<path d="M16.9838 11.3248C17.5441 11.3248 17.9999 10.869 17.9999 10.3088C17.9999 9.74851 17.5441 9.29271 16.9838 9.29271H15.7002V8.70687H16.9838C17.5441 8.70687 17.9999 8.25107 17.9999 7.69082C17.9999 7.13057 17.5441 6.67477 16.9838 6.67477H15.7002V6.08893H16.9838C17.544 6.08893 17.9998 5.63313 17.9998 5.07288C17.9998 4.51263 17.544 4.05683 16.9838 4.05683H15.7002V3.47103H16.9838C17.544 3.47103 17.9998 3.01523 17.9998 2.45498C17.9998 1.89473 17.544 1.43896 16.9838 1.43896L13.8761 1.43914C13.2269 1.43914 12.6205 1.68801 12.1686 2.13994C11.7167 2.59188 11.4678 3.19825 11.4678 3.84751V14.1158C11.4678 15.2803 12.2912 16.2558 13.3863 16.4916C13.3924 16.4931 13.3984 16.4947 13.4046 16.4959C13.5641 16.5289 13.7292 16.5464 13.8984 16.5464H14.0528C14.0878 16.5557 14.1245 16.5607 14.1624 16.5607H16.9838C17.5441 16.5607 17.9999 16.1049 17.9999 15.5446C17.9999 14.9844 17.5441 14.5286 16.9838 14.5286H15.7002V13.9428H16.9838C17.5441 13.9428 17.9999 13.487 17.9999 12.9267C17.9999 12.3665 17.5441 11.9107 16.9838 11.9107H15.7002V11.3248H16.9838ZM15.2769 12.7572H16.9838C17.0773 12.7572 17.1533 12.8332 17.1533 12.9267C17.1533 13.0203 17.0773 13.0963 16.9838 13.0963H15.2769C15.0432 13.0963 14.8537 13.2858 14.8537 13.5195V14.9519C14.8537 15.1856 15.0432 15.3751 15.2769 15.3751H16.9838C17.0773 15.3751 17.1533 15.4512 17.1533 15.5447C17.1533 15.6382 17.0773 15.7142 16.9838 15.7142H14.272C14.237 15.7049 14.2003 15.6999 14.1624 15.6999H13.9086V5.30481C13.9086 5.07106 13.7191 4.88156 13.4854 4.88156C13.2516 4.88156 13.0621 5.07106 13.0621 5.30481V15.4603C12.6135 15.1803 12.3142 14.6825 12.3142 14.1158V3.84751C12.3142 2.9717 13.0003 2.28563 13.8761 2.28563L16.9837 2.28546C17.0772 2.28546 17.1533 2.3615 17.1533 2.45501C17.1533 2.54849 17.0773 2.62457 16.9837 2.62457H15.2769C15.0431 2.62457 14.8536 2.81406 14.8536 3.04782V4.48015C14.8536 4.7139 15.0431 4.9034 15.2769 4.9034H16.9837C17.0772 4.9034 17.1533 4.97944 17.1533 5.07295C17.1533 5.16647 17.0773 5.24251 16.9837 5.24251H15.2769C15.0431 5.24251 14.8536 5.432 14.8536 5.66576V7.09805C14.8536 7.33181 15.0431 7.5213 15.2769 7.5213H16.9837C17.0772 7.5213 17.1533 7.59734 17.1533 7.69086C17.1533 7.78434 17.0773 7.86042 16.9837 7.86042H15.2769C15.0431 7.86042 14.8536 8.04991 14.8536 8.28366V9.71599C14.8536 9.94975 15.0431 10.1392 15.2769 10.1392H16.9837C17.0772 10.1392 17.1533 10.2153 17.1533 10.3088C17.1533 10.4023 17.0773 10.4784 16.9837 10.4784H15.2769C15.0431 10.4784 14.8536 10.6678 14.8536 10.9016V12.3339C14.8537 12.5677 15.0432 12.7572 15.2769 12.7572Z" fill="#50CEC3"/>
<path d="M13.9024 3.95209C13.897 3.92544 13.8889 3.89875 13.8783 3.87295C13.8677 3.84757 13.8546 3.82299 13.8394 3.80014C13.8237 3.77687 13.8064 3.75528 13.7865 3.73581C13.767 3.71633 13.7454 3.69857 13.7221 3.6829C13.6993 3.66767 13.6747 3.65452 13.6493 3.64394C13.6239 3.63336 13.5972 3.62531 13.5702 3.61983C13.5156 3.60882 13.4593 3.60882 13.4047 3.61983C13.3776 3.62531 13.3509 3.63336 13.3256 3.64394C13.3002 3.65452 13.2752 3.66764 13.2523 3.6829C13.2295 3.69854 13.2075 3.71633 13.188 3.73581C13.1685 3.75528 13.1508 3.77687 13.1355 3.80014C13.1203 3.82299 13.1071 3.84753 13.0966 3.87295C13.086 3.89875 13.0779 3.92544 13.0724 3.95209C13.0669 3.97961 13.064 4.00753 13.064 4.03505C13.064 4.06258 13.0669 4.0905 13.0724 4.1176C13.0779 4.14471 13.086 4.17136 13.0966 4.19674C13.1071 4.22254 13.1203 4.24712 13.1355 4.26997C13.1507 4.29324 13.1685 4.31483 13.188 4.3343C13.2075 4.35378 13.2295 4.37153 13.2523 4.38679C13.2752 4.40201 13.3001 4.41516 13.3256 4.42575C13.3509 4.43633 13.3776 4.44438 13.4047 4.44986C13.4322 4.45535 13.4597 4.45834 13.4877 4.45834C13.5152 4.45834 13.5427 4.45538 13.5702 4.44986C13.5973 4.44434 13.624 4.43633 13.6494 4.42575C13.6747 4.41516 13.6993 4.40205 13.7222 4.38679C13.7454 4.37157 13.767 4.35378 13.7865 4.3343C13.8064 4.31483 13.8237 4.29324 13.8394 4.26997C13.8546 4.24712 13.8678 4.22258 13.8784 4.19674C13.8889 4.17136 13.897 4.14467 13.9025 4.1176C13.908 4.09053 13.9105 4.06258 13.9105 4.03505C13.9105 4.00753 13.9079 3.97961 13.9024 3.95209Z" fill="#50CEC3"/>
<path d="M4.01118 13.9109C3.96984 13.5742 3.79982 13.2737 3.53246 13.0648C3.24748 12.8421 2.9508 12.7954 2.75203 12.7954C2.35736 12.7954 1.99191 12.9734 1.74948 13.2837C1.54058 13.551 1.44829 13.8837 1.48964 14.2205C1.53098 14.5572 1.701 14.8577 1.96836 15.0666C2.25334 15.2893 2.55002 15.336 2.74879 15.336C3.14346 15.336 3.50887 15.158 3.75134 14.8477C3.96027 14.5804 4.05256 14.2477 4.01118 13.9109ZM3.08436 14.3266C3.00343 14.4302 2.88115 14.4896 2.74886 14.4896C2.6532 14.4896 2.56598 14.4593 2.48962 14.3997C2.40039 14.33 2.34369 14.2297 2.32987 14.1174C2.31609 14.0051 2.34685 13.8941 2.41657 13.8049C2.4975 13.7013 2.61973 13.6419 2.75203 13.6419C2.84769 13.6419 2.93491 13.6722 3.01127 13.7319C3.10049 13.8015 3.1572 13.9018 3.17102 14.0141C3.1848 14.1265 3.15404 14.2374 3.08436 14.3266Z" fill="#50CEC3"/>
<path d="M9.65622 12.3718C8.87072 11.3664 7.52066 11.0563 6.39998 11.5385L9.04749 7.57C9.049 7.56772 9.05051 7.56543 9.05199 7.56315C9.8223 6.35856 9.93905 4.85777 9.36435 3.54852L8.43669 1.43529C8.37066 1.28496 8.22367 1.18634 8.05953 1.18227C7.89465 1.17833 7.74369 1.26949 7.67039 1.41644L5.11921 6.5304L2.56799 1.41644C2.49469 1.26949 2.34331 1.17808 2.17885 1.18227C2.01471 1.18627 1.86768 1.28489 1.8017 1.43529L0.874029 3.54852C0.299296 4.85777 0.416085 6.35856 1.18639 7.56315C1.18797 7.56561 1.18956 7.56807 1.19117 7.57046L3.84768 11.5417C3.40186 11.347 2.91059 11.274 2.4151 11.3348C1.68561 11.4243 1.03466 11.7926 0.582198 12.3718C-0.351902 13.5674 -0.139136 15.3 1.05645 16.2341C1.54513 16.6159 2.13448 16.8178 2.74494 16.8178C2.858 16.8178 2.97183 16.8109 3.08581 16.7968C3.8153 16.7073 4.46625 16.339 4.91871 15.7598C4.99258 15.6653 5.05899 15.5667 5.11921 15.4652C5.17943 15.5667 5.24584 15.6653 5.3197 15.7598C5.86167 16.4535 6.67223 16.8163 7.49095 16.8163C8.08337 16.8163 8.68011 16.6262 9.18203 16.234C10.3776 15.3 10.5903 13.5674 9.65622 12.3718ZM3.57909 9.61764L1.89732 7.10352C1.28181 6.13844 1.18899 4.93702 1.64919 3.88873L2.2138 2.60254L4.64622 7.47849L3.57909 9.61764ZM4.25166 15.2387C3.93838 15.6398 3.48772 15.8947 2.98266 15.9567C2.47761 16.0188 1.9786 15.8803 1.57761 15.5671C1.17658 15.2538 0.921631 14.8031 0.859615 14.298C0.7976 13.793 0.935975 13.294 1.24929 12.893C1.56256 12.4919 2.01323 12.237 2.51828 12.175C2.59721 12.1653 2.67603 12.1605 2.75429 12.1605C3.17694 12.1605 3.58503 12.3003 3.92334 12.5646C4.32436 12.8779 4.57931 13.3286 4.64133 13.8337C4.70335 14.3387 4.56494 14.8377 4.25166 15.2387ZM5.08964 11.9773L4.62287 11.1795C4.62284 11.1794 4.6228 11.1793 4.6227 11.1792L4.14946 10.3704L8.02462 2.60254L8.58923 3.88873C9.04946 4.93709 8.95658 6.13866 8.34096 7.10373L5.08964 11.9773ZM8.66084 15.567C7.83309 16.2138 6.63346 16.0664 5.98669 15.2387C5.67341 14.8377 5.53504 14.3387 5.59705 13.8336C5.65907 13.3286 5.91405 12.8779 6.31505 12.5646C6.65339 12.3003 7.06145 12.1605 7.48409 12.1605C7.56235 12.1605 7.64117 12.1652 7.7201 12.1749C8.22519 12.237 8.67585 12.4919 8.98917 12.8929C9.6359 13.7208 9.48863 14.9204 8.66084 15.567Z" fill="#50CEC3"/>
<path d="M8.48694 13.2837C8.24454 12.9734 7.87912 12.7954 7.48439 12.7954C7.28562 12.7954 6.98893 12.8421 6.70396 13.0648C6.43659 13.2737 6.26658 13.5742 6.22524 13.9109C6.18389 14.2477 6.27614 14.5804 6.48504 14.8477C6.72748 15.1581 7.09289 15.3361 7.48766 15.3361C7.68636 15.3361 7.98308 15.2894 8.26802 15.0667C8.5351 14.858 8.70498 14.5575 8.74632 14.2205C8.78773 13.8834 8.69559 13.5507 8.48694 13.2837ZM7.90619 14.1173C7.89234 14.2299 7.83581 14.3302 7.7469 14.3996C7.67054 14.4593 7.58332 14.4895 7.48766 14.4895C7.3553 14.4895 7.23299 14.4301 7.15206 14.3265C7.08238 14.2374 7.05158 14.1264 7.06536 14.0141C7.07914 13.9017 7.13589 13.8015 7.22511 13.7318C7.30147 13.6721 7.38869 13.6419 7.48435 13.6419C7.61665 13.6419 7.73892 13.7012 7.81985 13.8048C7.88939 13.8938 7.91997 14.0047 7.90619 14.1173Z" fill="#50CEC3"/>
<path d="M7.45783 5.68395C7.25002 5.57704 6.99478 5.65871 6.8878 5.86655L4.92324 9.68272C4.81626 9.89053 4.898 10.1458 5.10584 10.2527C5.16782 10.2847 5.23399 10.2997 5.29924 10.2997C5.45269 10.2997 5.60081 10.216 5.6759 10.0701L7.64046 6.25397C7.74741 6.0461 7.66563 5.79093 7.45783 5.68395Z" fill="#50CEC3"/>
<path d="M8.25986 4.84833C8.25438 4.82126 8.24633 4.79499 8.23574 4.76919C8.22516 4.74381 8.21205 4.71923 8.19679 4.69638C8.18115 4.67311 8.16378 4.65152 8.1443 4.63205C8.1244 4.61215 8.10282 4.59482 8.07955 4.57914C8.05669 4.56391 8.03215 4.55076 8.00674 4.54018C7.98132 4.5296 7.95467 4.52155 7.9276 4.51607C7.873 4.50506 7.81672 4.50506 7.76212 4.51607C7.73505 4.52155 7.70837 4.5296 7.68298 4.54018C7.6576 4.55076 7.63261 4.56388 7.60975 4.57914C7.58648 4.59478 7.56489 4.61215 7.54542 4.63205C7.52594 4.65152 7.50819 4.67311 7.49293 4.69638C7.47771 4.71923 7.46456 4.74377 7.45398 4.76919C7.44339 4.79499 7.43534 4.82126 7.42986 4.84833C7.42437 4.87585 7.42139 4.90335 7.42139 4.9313C7.42139 5.0426 7.46667 5.15179 7.54538 5.23054C7.56489 5.25002 7.58644 5.26778 7.60972 5.28303C7.63257 5.29826 7.65753 5.3114 7.68295 5.32199C7.70837 5.33257 7.73501 5.34062 7.76209 5.3461C7.78916 5.35159 7.8171 5.35458 7.84463 5.35458C7.87258 5.35458 7.90007 5.35162 7.9276 5.3461C7.95471 5.34062 7.98135 5.33257 8.00674 5.32199C8.03212 5.3114 8.05669 5.29829 8.07955 5.28303C8.10282 5.26781 8.1244 5.25002 8.1443 5.23054C8.22302 5.15183 8.26788 5.04263 8.26788 4.9313C8.26791 4.90335 8.26538 4.87582 8.25986 4.84833Z" fill="#50CEC3"/>
</svg>
