<svg width="18" height="18" viewBox="0 0 18 18" fill="none" xmlns="http://www.w3.org/2000/svg">
<g clip-path="url(#clip0_8566_13283)">
<path d="M0.010498 1.97461V13.7771H7.31681V1.97461H0.010498ZM0.572541 13.2151V2.53665H6.75477V13.2151L0.572541 13.2151Z" fill="#50CEC3"/>
<path d="M4.36279 0V1.70371H4.91833V0.555539H14.7702V17.4445H4.91833V14.0741H4.36279V18H15.3257V0H4.36279Z" fill="#50CEC3"/>
<path d="M13.9206 1.40771H11.6614V1.96325H13.9206V1.40771Z" fill="#50CEC3"/>
<path d="M8.84192 3.96289H8.28638V4.51843H8.84192V3.96289Z" fill="#50CEC3"/>
<path d="M13.9175 3.96289H9.43604V4.51843H13.9175V3.96289Z" fill="#50CEC3"/>
<path d="M8.84192 5.07373H8.28638V5.62927H8.84192V5.07373Z" fill="#50CEC3"/>
<path d="M13.9175 5.07422H9.43604V5.62976H13.9175V5.07422Z" fill="#50CEC3"/>
<path d="M8.84192 6.18555H8.28638V6.74109H8.84192V6.18555Z" fill="#50CEC3"/>
<path d="M13.9175 6.18506H9.43604V6.7406H13.9175V6.18506Z" fill="#50CEC3"/>
<path d="M8.84192 7.3335H8.28638V7.88904H8.84192V7.3335Z" fill="#50CEC3"/>
<path d="M13.9175 7.3335H9.43604V7.88904H13.9175V7.3335Z" fill="#50CEC3"/>
<path d="M8.84192 8.44434H8.28638V8.99988H8.84192V8.44434Z" fill="#50CEC3"/>
<path d="M13.9175 8.44434H9.43604V8.99988H13.9175V8.44434Z" fill="#50CEC3"/>
<path d="M8.84192 9.55566H8.28638V10.1112H8.84192V9.55566Z" fill="#50CEC3"/>
<path d="M13.9175 9.55566H9.43604V10.1112H13.9175V9.55566Z" fill="#50CEC3"/>
<path d="M8.84192 10.7036H8.28638V11.2592H8.84192V10.7036Z" fill="#50CEC3"/>
<path d="M13.9175 10.7036H9.43604V11.2592H13.9175V10.7036Z" fill="#50CEC3"/>
<path d="M8.84192 11.8145H8.28638V12.37H8.84192V11.8145Z" fill="#50CEC3"/>
<path d="M13.9175 11.8149H9.43604V12.3705H13.9175V11.8149Z" fill="#50CEC3"/>
<path d="M11.1033 13.2222H10.2515V13.7777H11.1033V13.2222Z" fill="#50CEC3"/>
<path d="M13.9206 13.2222H11.6614V13.7777H13.9206V13.2222Z" fill="#50CEC3"/>
<path d="M11.1033 14.0742H10.2515V14.6298H11.1033V14.0742Z" fill="#50CEC3"/>
<path d="M13.9206 14.0737H11.6614V14.6293H13.9206V14.0737Z" fill="#50CEC3"/>
<path d="M13.9206 14.8887H11.6614V15.4442H13.9206V14.8887Z" fill="#50CEC3"/>
<path d="M8.84677 16.2964H5.77271V16.8519H8.84677V16.2964Z" fill="#50CEC3"/>
<path d="M15.6199 4.77637V7.59273H16.1754V5.33507L16.5852 5.33739V13.7774H17.9902V4.78495L15.6199 4.77637ZM17.4282 13.2153H17.1472V5.34702H17.4282V13.2153Z" fill="#50CEC3"/>
<path d="M16.5833 3.11133V4.51874H17.1388V3.66687H17.4351V4.51874H17.9907V3.11133H16.5833Z" fill="#50CEC3"/>
<path d="M17.4351 14.8887V15.4235L17.3087 15.859L17.1388 15.412V14.8887H16.5833V15.514L16.9931 16.5924H17.6743L17.9907 15.5025V14.8887H17.4351Z" fill="#50CEC3"/>
<path d="M17.9907 14.0737H16.5833V14.6293H17.9907V14.0737Z" fill="#50CEC3"/>
<path d="M0.85083 2.81738V8.99964H6.47108V2.81738H0.85083ZM5.90904 8.4376H1.41287V3.37943H5.90904V8.4376Z" fill="#50CEC3"/>
<path d="M1.54699 9.55566H0.991455V10.1112H1.54699V9.55566Z" fill="#50CEC3"/>
<path d="M2.66125 9.55566H2.10571V10.1112H2.66125V9.55566Z" fill="#50CEC3"/>
<path d="M3.80407 9.55566H3.24854V10.1112H3.80407V9.55566Z" fill="#50CEC3"/>
<path d="M4.91833 9.55566H4.36279V10.1112H4.91833V9.55566Z" fill="#50CEC3"/>
<path d="M1.54699 10.4077H0.991455V10.9633H1.54699V10.4077Z" fill="#50CEC3"/>
<path d="M2.66125 10.4077H2.10571V10.9633H2.66125V10.4077Z" fill="#50CEC3"/>
<path d="M3.80407 10.4077H3.24854V10.9633H3.80407V10.4077Z" fill="#50CEC3"/>
<path d="M4.91833 10.4072H4.36279V10.9628H4.91833V10.4072Z" fill="#50CEC3"/>
<path d="M1.54699 11.2593H0.991455V11.8148H1.54699V11.2593Z" fill="#50CEC3"/>
<path d="M2.66125 11.2593H2.10571V11.8148H2.66125V11.2593Z" fill="#50CEC3"/>
<path d="M3.80407 11.2593H3.24854V11.8148H3.80407V11.2593Z" fill="#50CEC3"/>
<path d="M4.91833 11.2593H4.36279V11.8148H4.91833V11.2593Z" fill="#50CEC3"/>
<path d="M1.54699 12.1113H0.991455V12.6669H1.54699V12.1113Z" fill="#50CEC3"/>
<path d="M2.66125 12.1113H2.10571V12.6669H2.66125V12.1113Z" fill="#50CEC3"/>
<path d="M3.80407 12.1113H3.24854V12.6669H3.80407V12.1113Z" fill="#50CEC3"/>
<path d="M4.91833 12.1113H4.36279V12.6669H4.91833V12.1113Z" fill="#50CEC3"/>
<path d="M6.02942 9.55566H5.47388V10.9631H6.02942V9.55566Z" fill="#50CEC3"/>
<path d="M6.02942 11.2593H5.47388V12.6667H6.02942V11.2593Z" fill="#50CEC3"/>
<path d="M3.80407 3.66699H3.24854V4.22253H3.80407V3.66699Z" fill="#50CEC3"/>
<path d="M4.65656 3.66699H4.06396V4.22253H4.65656V3.66699Z" fill="#50CEC3"/>
<path d="M5.47033 3.66699H4.91479V4.22253H5.47033V3.66699Z" fill="#50CEC3"/>
</g>
<defs>
<clipPath id="clip0_8566_13283">
<rect width="18" height="18" fill="white"/>
</clipPath>
</defs>
</svg>
