<svg width="16" height="16" viewBox="0 0 16 16" fill="none" xmlns="http://www.w3.org/2000/svg">
<path d="M3.13839 4.46419H2.25446C2.13725 4.46419 2.02483 4.41763 1.94195 4.33474C1.85906 4.25186 1.8125 4.13944 1.8125 4.02223C1.8125 3.90501 1.85906 3.7926 1.94195 3.70971C2.02483 3.62683 2.13725 3.58026 2.25446 3.58026H5.79018V2.25349C5.79018 2.13627 5.83674 2.02386 5.91963 1.94097C6.00251 1.85809 6.11493 1.81152 6.23214 1.81152H9.76786C9.88507 1.81152 9.99749 1.85809 10.0804 1.94097C10.1633 2.02386 10.2098 2.13627 10.2098 2.25349V3.58026H13.7455C13.8628 3.58026 13.9752 3.62683 14.0581 3.70971C14.1409 3.7926 14.1875 3.90501 14.1875 4.02223C14.1875 4.13944 14.1409 4.25186 14.0581 4.33474C13.9752 4.41763 13.8628 4.46419 13.7455 4.46419H12.8616V13.7454C12.8616 13.8627 12.815 13.9751 12.7322 14.058C12.6493 14.1408 12.5369 14.1874 12.4196 14.1874H3.58036C3.46314 14.1874 3.35073 14.1408 3.26784 14.058C3.18496 13.9751 3.13839 13.8627 3.13839 13.7454V4.46419ZM9.32589 3.58026V2.69634H6.67411V3.58026H9.32589ZM4.02232 13.3035H11.9777V4.46419H4.02232V13.3035ZM6.67411 11.5356C6.55689 11.5356 6.44448 11.4891 6.36159 11.4062C6.27871 11.3233 6.23214 11.2109 6.23214 11.0937V6.67401C6.23214 6.5568 6.27871 6.44438 6.36159 6.3615C6.44448 6.27861 6.55689 6.23205 6.67411 6.23205C6.79132 6.23205 6.90374 6.27861 6.98662 6.3615C7.06951 6.44438 7.11607 6.5568 7.11607 6.67401V11.0937C7.11607 11.2109 7.06951 11.3233 6.98662 11.4062C6.90374 11.4891 6.79132 11.5356 6.67411 11.5356ZM9.32589 11.5356C9.20868 11.5356 9.09626 11.4891 9.01338 11.4062C8.93049 11.3233 8.88393 11.2109 8.88393 11.0937V6.67401C8.88393 6.5568 8.93049 6.44438 9.01338 6.3615C9.09626 6.27861 9.20868 6.23205 9.32589 6.23205C9.44311 6.23205 9.55552 6.27861 9.63841 6.3615C9.72129 6.44438 9.76786 6.5568 9.76786 6.67401V11.0937C9.76786 11.2109 9.72129 11.3233 9.63841 11.4062C9.55552 11.4891 9.44311 11.5356 9.32589 11.5356Z" fill="white"/>
</svg>
