<svg width="19" height="18" viewBox="0 0 19 18" fill="none" xmlns="http://www.w3.org/2000/svg">
<g clip-path="url(#clip0_7781_12960)">
<path d="M9.5 2.8125C15.125 2.8125 18.5 9 18.5 9C18.5 9 15.125 15.1875 9.5 15.1875C3.875 15.1875 0.5 9 0.5 9C0.5 9 3.875 2.8125 9.5 2.8125ZM9.5 3.9375C5.54 3.9375 2.74775 7.59487 1.82187 9C2.74662 10.404 5.53888 14.0625 9.5 14.0625C13.46 14.0625 16.2522 10.4051 17.1781 9C16.2534 7.596 13.4611 3.9375 9.5 3.9375ZM9.5 5.0625C10.5443 5.0625 11.5458 5.47734 12.2842 6.21577C13.0227 6.95419 13.4375 7.95571 13.4375 9C13.4375 10.0443 13.0227 11.0458 12.2842 11.7842C11.5458 12.5227 10.5443 12.9375 9.5 12.9375C8.45571 12.9375 7.45419 12.5227 6.71577 11.7842C5.97734 11.0458 5.5625 10.0443 5.5625 9C5.5625 7.95571 5.97734 6.95419 6.71577 6.21577C7.45419 5.47734 8.45571 5.0625 9.5 5.0625ZM9.5 6.1875C8.75435 6.18839 8.0395 6.485 7.51225 7.01225C6.985 7.5395 6.68839 8.25435 6.6875 9C6.6875 10.5503 7.94863 11.8125 9.5 11.8125C11.0514 11.8125 12.3125 10.5503 12.3125 9C12.3125 7.44975 11.0514 6.1875 9.5 6.1875Z" fill="white"/>
</g>
<defs>
<clipPath id="clip0_7781_12960">
<rect width="18" height="18" fill="white" transform="translate(0.5)"/>
</clipPath>
</defs>
</svg>
