<svg width="16" height="14" viewBox="0 0 16 14" fill="none" xmlns="http://www.w3.org/2000/svg">
<path d="M14.1875 0.8125H1.8125C1.51413 0.8125 1.22798 0.931026 1.017 1.142C0.806026 1.35298 0.6875 1.63913 0.6875 1.9375V12.0625C0.6875 12.3609 0.806026 12.647 1.017 12.858C1.22798 13.069 1.51413 13.1875 1.8125 13.1875H14.1875C14.4859 13.1875 14.772 13.069 14.983 12.858C15.194 12.647 15.3125 12.3609 15.3125 12.0625V1.9375C15.3125 1.63913 15.194 1.35298 14.983 1.142C14.772 0.931026 14.4859 0.8125 14.1875 0.8125ZM14.1875 1.9375V4.1875H1.8125V1.9375H14.1875ZM14.1875 12.0625H1.8125V5.3125H14.1875V12.0625Z" fill="#50CEC3"/>
</svg>
